<svg version="1" xmlns="http://www.w3.org/2000/svg" width="410.667" height="410.667" viewBox="0 0 308.000000 308.000000"><path d="M59.4 18.5c-.1.5-.4 2.6-.6 4.6l-.4 3.7 12 1.2c15 1.5 18.5 2.6 20.9 6.8 1.9 3.3 1.9 3.4-1.3 26-4.4 31.8-27.5 169.7-31.2 186.9-1.7 7.8-3.9 15.6-5 17.3-2.5 4.2-6.9 5.8-18.2 6.6l-9.6.7v10.2h96v-10.1l-13.7-1.6c-16.3-2-18.6-3.2-19.1-9.9C88.8 256 105 153 106.1 153c.8 0 23.7 25.7 40.1 45 16.7 19.7 35.9 43.9 52.1 65.5l14.2 19.1 25.7-.1H264v-10.2l-7.1-.7c-8.6-.9-11.1-1.8-15.4-5.4-1.8-1.5-24.1-27.9-49.5-58.7-25.5-30.8-48.3-58.3-50.6-61.1l-4.3-5 44.2-41.5c81.3-76.4 74.4-70.6 87.2-72.2l8.5-1.1v-9.1l-24.3-.1h-24.4l-1 6.3c-1.6 8.8-2.7 10.2-39.7 48.7-12.2 12.6-28.4 28.8-36.1 35.9-17.5 16.2-44.8 39.2-45.3 37.9-.4-1.4 14.6-90.9 17-100.7 1.7-6.8 3-9.8 5.3-12.2 3.2-3.5 6.7-4.4 23.8-5.9l7.7-.6v-9.3h-50.1c-33 0-50.2.3-50.5 1z"/></svg>